<svg width="1280" height="358" viewBox="0 0 1280 358" fill="none" xmlns="http://www.w3.org/2000/svg">
<path d="M1280 0H0V402.544H1280V0Z" fill="url(#paint0_linear_97_1464)"/>
<g opacity="0.2">
<mask id="mask0_97_1464" style="mask-type:luminance" maskUnits="userSpaceOnUse" x="0" y="0" width="1280" height="403">
<path d="M1280 0H0V402.544H1280V0Z" fill="white"/>
</mask>
<g mask="url(#mask0_97_1464)">
<path opacity="0.5" d="M1086.46 63.0381L665.429 261.734C594.261 228.162 594.261 173.818 665.429 140.326L1086.46 -58.3691C1157.46 -24.797 1157.46 29.5464 1086.46 63.0381Z" fill="url(#paint1_linear_97_1464)"/>
<path opacity="0.5" d="M1041.07 282.103L937.131 331.132C865.963 297.56 865.963 243.217 937.131 209.725L1041.07 160.695C1112.23 194.267 1112.23 248.611 1041.07 282.103Z" fill="url(#paint2_linear_97_1464)"/>
<path opacity="0.5" d="M1031.68 121.407L789.675 235.569C748.885 216.327 748.885 185.09 789.675 165.767L1031.51 51.6865C1072.47 70.9281 1072.47 102.166 1031.68 121.407Z" fill="url(#paint3_linear_97_1464)"/>
<path d="M692.053 31.3981L587.776 80.589C585.045 79.3009 585.045 77.2881 587.776 76.0805L692.053 26.8896C694.784 28.0973 694.784 30.11 692.053 31.3981Z" fill="url(#paint4_linear_97_1464)"/>
<path d="M163.157 127.928L58.88 177.119C56.1494 175.831 56.1494 173.818 58.88 172.611L163.157 123.42C165.717 124.628 165.717 126.721 163.157 127.928Z" fill="url(#paint5_linear_97_1464)"/>
<path d="M464.384 326.624L360.107 375.815C357.376 374.526 357.376 372.514 360.107 371.306L464.384 322.115C467.115 323.323 467.115 325.336 464.384 326.624Z" fill="url(#paint6_linear_97_1464)"/>
<path d="M1220.95 178.971L1116.84 228.162C1114.11 226.874 1114.11 224.861 1116.84 223.653L1221.12 174.462C1223.68 175.67 1223.68 177.763 1220.95 178.971Z" fill="url(#paint7_linear_97_1464)"/>
<path d="M973.995 116.013L869.717 165.204C866.987 163.916 866.987 161.903 869.717 160.695L973.995 111.504C976.725 112.712 976.725 114.725 973.995 116.013Z" fill="url(#paint8_linear_97_1464)"/>
<path d="M653.995 186.055L549.717 235.246C546.987 233.958 546.987 231.945 549.717 230.738L653.995 181.547C656.725 182.755 656.725 184.767 653.995 186.055Z" fill="url(#paint9_linear_97_1464)"/>
<path opacity="0.5" d="M407.211 415.988L789.675 235.568C854.187 266.001 854.187 315.433 789.675 345.865L407.211 526.285C342.699 495.853 342.699 446.421 407.211 415.988Z" fill="url(#paint10_linear_97_1464)"/>
<path opacity="0.5" d="M334.507 475.726L959.147 181.064C993.963 197.488 993.963 224.217 959.147 240.64L334.507 535.303C299.52 518.798 299.52 492.15 334.507 475.726Z" fill="url(#paint11_linear_97_1464)"/>
<g opacity="0.5">
<path d="M782.165 -0.322266H781.995H733.184H733.013H732.843H684.032H683.861H683.691H658.261L656.555 0.482822H683.691H683.861H684.032H732.843H733.013H733.184H781.995H782.165H782.336H782.848L784.555 -0.322266H782.336H782.165Z" fill="url(#paint12_linear_97_1464)"/>
<path d="M733.013 11.271H732.843H684.032H683.861H683.691H634.88H634.709H634.539H633.685L631.979 12.0761H634.539H634.709H634.88H683.691H683.861H684.032H732.843H733.013H733.184H758.272L759.979 11.271H733.184H733.013Z" fill="url(#paint13_linear_97_1464)"/>
<path d="M733.013 3.54199H732.843H684.032H683.861H683.691H650.069L648.363 4.34708H683.691H683.861H684.032H732.843H733.013H733.184H774.656L776.363 3.54199H733.184H733.013Z" fill="url(#paint14_linear_97_1464)"/>
<path d="M733.013 7.40674H732.843H684.032H683.861H683.691H641.877L640.171 8.21183H683.691H683.861H684.032H732.843H733.013H733.184H766.464L768.171 7.40674H733.184H733.013Z" fill="url(#paint15_linear_97_1464)"/>
<path d="M733.013 19H732.843H684.032H683.861H683.691H634.88H634.709H634.539H617.301L615.595 19.8051H634.539H634.709H634.88H683.691H683.861H684.032H732.843H733.013H733.184H741.888L743.595 19H733.184H733.013Z" fill="url(#paint16_linear_97_1464)"/>
<path d="M733.013 22.8643H732.843H684.032H683.861H683.691H634.88H634.709H634.539H609.109L607.403 23.6693H634.539H634.709H634.88H683.691H683.861H684.032H732.843H733.013H733.184H733.696L735.403 22.8643H733.184H733.013Z" fill="url(#paint17_linear_97_1464)"/>
<path d="M733.013 15.1353H732.843H684.032H683.861H683.691H634.88H634.709H634.539H625.493L623.787 15.9403H634.539H634.709H634.88H683.691H683.861H684.032H732.843H733.013H733.184H750.08L751.787 15.1353H733.184H733.013Z" fill="url(#paint18_linear_97_1464)"/>
<path d="M683.861 34.4575H683.691H634.88H634.709H634.539H585.728H585.557H585.387H584.533L582.827 35.2626H585.387H585.557H585.728H634.539H634.709H634.88H683.691H683.861H684.032H709.12L710.827 34.4575H684.032H683.861Z" fill="url(#paint19_linear_97_1464)"/>
<path d="M683.861 26.7285H683.691H634.88H634.709H634.539H600.917L599.211 27.5336H634.539H634.709H634.88H683.691H683.861H684.032H725.504L727.211 26.7285H684.032H683.861Z" fill="url(#paint20_linear_97_1464)"/>
<path d="M683.861 30.5933H683.691H634.88H634.709H634.539H592.725L591.019 31.3983H634.539H634.709H634.88H683.691H683.861H684.032H717.312L719.019 30.5933H684.032H683.861Z" fill="url(#paint21_linear_97_1464)"/>
<path d="M683.861 42.1865H683.691H634.88H634.709H634.539H585.728H585.557H585.387H568.149L566.443 42.9916H585.387H585.557H585.728H634.539H634.709H634.88H683.691H683.861H684.032H692.736L694.443 42.1865H684.032H683.861Z" fill="url(#paint22_linear_97_1464)"/>
<path d="M683.861 46.0508H683.691H634.88H634.709H634.539H585.728H585.557H585.387H559.957L558.251 46.8559H585.387H585.557H585.728H634.539H634.709H634.88H683.691H683.861H684.032H684.544L686.251 46.0508H684.032H683.861Z" fill="url(#paint23_linear_97_1464)"/>
<path d="M683.861 38.3218H683.691H634.88H634.709H634.539H585.728H585.557H585.387H576.341L574.635 39.1269H585.387H585.557H585.728H634.539H634.709H634.88H683.691H683.861H684.032H700.928L702.635 38.3218H684.032H683.861Z" fill="url(#paint24_linear_97_1464)"/>
<path d="M634.709 57.644H634.539H585.728H585.557H585.387H536.576H536.405H536.235H535.381L533.675 58.4491H536.235H536.405H536.576H585.387H585.557H585.728H634.539H634.709H634.88H659.968L661.675 57.644H634.88H634.709Z" fill="url(#paint25_linear_97_1464)"/>
<path d="M634.709 49.915H634.539H585.728H585.557H585.387H551.765L550.059 50.7201H585.387H585.557H585.728H634.539H634.709H634.88H676.352L678.059 49.915H634.88H634.709Z" fill="url(#paint26_linear_97_1464)"/>
<path d="M634.709 53.7798H634.539H585.728H585.557H585.387H543.573L541.867 54.5849H585.387H585.557H585.728H634.539H634.709H634.88H668.16L669.867 53.7798H634.88H634.709Z" fill="url(#paint27_linear_97_1464)"/>
<path d="M634.709 65.373H634.539H585.728H585.557H585.387H536.576H536.405H536.235H518.997L517.291 66.1781H536.235H536.405H536.576H585.387H585.557H585.728H634.539H634.709H634.88H643.584L645.291 65.373H634.88H634.709Z" fill="url(#paint28_linear_97_1464)"/>
<path d="M634.709 69.2373H634.539H585.728H585.557H585.387H536.576H536.405H536.235H510.805L509.099 70.0424H536.235H536.405H536.576H585.387H585.557H585.728H634.539H634.709H634.88H635.392L637.099 69.2373H634.88H634.709Z" fill="url(#paint29_linear_97_1464)"/>
<path d="M634.709 61.5083H634.539H585.728H585.557H585.387H536.576H536.405H536.235H527.189L525.483 62.3134H536.235H536.405H536.576H585.387H585.557H585.728H634.539H634.709H634.88H651.776L653.483 61.5083H634.88H634.709Z" fill="url(#paint30_linear_97_1464)"/>
<path d="M585.557 80.8306H585.387H536.576H536.405H536.235H487.424H487.253H487.083H486.229L484.523 81.6357H487.083H487.253H487.424H536.235H536.405H536.576H585.387H585.557H585.728H610.816L612.523 80.8306H585.728H585.557Z" fill="url(#paint31_linear_97_1464)"/>
<path d="M585.557 73.1016H585.387H536.576H536.405H536.235H502.613L500.907 73.9067H536.235H536.405H536.576H585.387H585.557H585.728H627.2L628.907 73.1016H585.728H585.557Z" fill="url(#paint32_linear_97_1464)"/>
<path d="M585.557 76.9663H585.387H536.576H536.405H536.235H494.421L492.715 77.7714H536.235H536.405H536.576H585.387H585.557H585.728H619.008L620.715 76.9663H585.728H585.557Z" fill="url(#paint33_linear_97_1464)"/>
<path d="M585.557 88.5596H585.387H536.576H536.405H536.235H487.424H487.253H487.083H471.04C470.699 88.8011 470.187 89.0426 469.845 89.3647H487.253H487.424H487.595H536.405H536.576H536.747H585.557H585.728H585.899H594.603L596.309 88.5596H585.899H585.557Z" fill="url(#paint34_linear_97_1464)"/>
<path d="M585.557 92.4238H585.387H536.576H536.405H536.235H487.424H487.253H487.083H465.408C465.067 92.6654 464.725 92.9069 464.384 93.2289H487.083H487.253H487.424H536.235H536.405H536.576H585.387H585.557H585.728H586.24L587.947 92.4238H585.728H585.557Z" fill="url(#paint35_linear_97_1464)"/>
<path d="M585.557 84.6948H585.387H536.576H536.405H536.235H487.424H487.253H487.083H478.037C477.525 84.9364 477.013 85.1779 476.501 85.4999H487.083H487.253H487.424H536.235H536.405H536.576H585.387H585.557H585.728H602.624L604.331 84.6948H585.728H585.557Z" fill="url(#paint36_linear_97_1464)"/>
<path d="M536.405 104.017H487.424H487.253H487.083H455.339C455.168 104.259 455.168 104.5 454.997 104.822H487.253H487.424H487.595H536.405H536.576H536.747H561.835L563.541 104.017H536.747H536.405Z" fill="url(#paint37_linear_97_1464)"/>
<path d="M536.405 96.2881H487.424H487.253H487.083H460.971C460.8 96.5296 460.459 96.7711 460.288 97.0932H487.083H487.253H487.424H536.235H536.405H536.576H578.048L579.755 96.2881H536.576H536.405Z" fill="url(#paint38_linear_97_1464)"/>
<path d="M536.405 100.153H487.424H487.253H487.083H457.728C457.557 100.394 457.387 100.636 457.216 100.958H487.083H487.253H487.424H536.235H536.405H536.576H569.856L571.563 100.153H536.576H536.405Z" fill="url(#paint39_linear_97_1464)"/>
<path d="M536.405 111.746H487.424H487.253H487.083H452.779C452.779 111.988 452.779 112.229 452.779 112.551H487.083H487.253H487.424H536.235H536.405H536.576H545.28L546.987 111.746H536.576H536.405Z" fill="url(#paint40_linear_97_1464)"/>
<path d="M536.405 115.61H487.424H487.253H487.083H452.779C452.779 115.852 452.779 116.093 452.779 116.415H487.083H487.253H487.424H536.235H536.405H536.576H537.088L538.795 115.61H536.576H536.405Z" fill="url(#paint41_linear_97_1464)"/>
<path d="M536.405 107.881H487.424H487.253H487.083H453.632C453.632 108.123 453.461 108.364 453.461 108.686H487.083H487.253H487.424H536.235H536.405H536.576H553.472L555.179 107.881H536.576H536.405Z" fill="url(#paint42_linear_97_1464)"/>
<path d="M487.253 127.204H457.045C457.216 127.445 457.387 127.687 457.557 128.009H487.083H487.253H487.424H512.512L514.219 127.204H487.253Z" fill="url(#paint43_linear_97_1464)"/>
<path d="M487.253 119.475H453.461C453.461 119.716 453.632 119.958 453.632 120.28H487.083H487.253H487.424H528.896L530.603 119.475H487.253Z" fill="url(#paint44_linear_97_1464)"/>
<path d="M487.253 123.339H454.827C454.997 123.581 454.997 123.822 455.168 124.144H487.083H487.253H487.424H520.704L522.411 123.339H487.253Z" fill="url(#paint45_linear_97_1464)"/>
<path d="M487.253 134.933H464.384C464.725 135.174 465.067 135.416 465.408 135.738H487.253H487.424H487.595H496.299L498.005 134.933H487.253Z" fill="url(#paint46_linear_97_1464)"/>
<path d="M487.253 138.797H469.675C470.016 139.038 470.528 139.28 470.869 139.602H487.083H487.253H487.424H487.936L489.643 138.797H487.253Z" fill="url(#paint47_linear_97_1464)"/>
<path d="M487.253 131.068H460.288C460.459 131.309 460.8 131.551 460.971 131.873H487.083H487.253H487.424H504.32L506.027 131.068H487.253Z" fill="url(#paint48_linear_97_1464)"/>
<path d="M477.867 143.466H479.744L481.451 142.661H476.331C476.843 142.903 477.355 143.144 477.867 143.466Z" fill="url(#paint49_linear_97_1464)"/>
</g>
<g opacity="0.5">
<path d="M627.883 293.696H627.712H578.901H578.731H578.56H529.749H529.579H529.408H528.555L526.848 294.501H529.408H529.579H529.749H578.56H578.731H578.901H627.712H627.883H628.053H629.931C630.101 294.259 630.101 294.018 630.272 293.696H628.053H627.883Z" fill="url(#paint50_linear_97_1464)"/>
<path d="M627.883 289.832H627.712H578.901H578.731H578.56H536.747L535.04 290.637H578.56H578.731H578.901H627.712H627.883H628.053H630.955C630.955 290.395 631.125 290.154 631.125 289.832H628.053H627.883Z" fill="url(#paint51_linear_97_1464)"/>
<path d="M627.883 297.56H627.712H578.901H578.731H578.56H529.749H529.579H529.408H520.363L518.656 298.365H529.408H529.579H529.749H578.56H578.731H578.901H627.712H627.883H628.053H628.224C628.395 298.124 628.565 297.882 628.736 297.56H628.224H627.883Z" fill="url(#paint52_linear_97_1464)"/>
<path d="M614.4 262.78H594.091L592.384 263.585H615.424C615.083 263.263 614.741 263.022 614.4 262.78Z" fill="url(#paint53_linear_97_1464)"/>
<path d="M619.691 266.645H585.899L584.192 267.45H620.544C620.203 267.128 619.861 266.887 619.691 266.645Z" fill="url(#paint54_linear_97_1464)"/>
<path d="M607.744 258.916H602.283L600.576 259.721H609.109C608.768 259.399 608.256 259.158 607.744 258.916Z" fill="url(#paint55_linear_97_1464)"/>
<path d="M578.731 316.882H578.56H529.749H529.579H529.408H480.597H480.427H480.256H479.403L477.696 317.687H480.256H480.427H480.597H529.408H529.579H529.749H578.56H578.731H578.901H603.989L605.013 317.204C605.184 317.124 605.355 317.043 605.525 316.882H578.731Z" fill="url(#paint56_linear_97_1464)"/>
<path d="M578.731 309.153H578.56H529.749H529.579H529.408H495.787L494.08 309.958H529.408H529.579H529.749H578.56H578.731H578.901H617.301C617.643 309.717 617.984 309.475 618.325 309.153H578.901H578.731Z" fill="url(#paint57_linear_97_1464)"/>
<path d="M578.731 301.425H578.56H529.749H529.579H529.408H512.171L510.464 302.23H529.408H529.579H529.749H578.56H578.731H578.901H625.493C625.664 301.988 625.835 301.747 626.176 301.425H578.901H578.731Z" fill="url(#paint58_linear_97_1464)"/>
<path d="M578.731 313.018H578.56H529.749H529.579H529.408H487.595L485.888 313.823H529.408H529.579H529.749H578.56H578.731H578.901H611.499C612.011 313.582 612.352 313.34 612.693 313.018H578.901H578.731Z" fill="url(#paint59_linear_97_1464)"/>
<path d="M578.731 305.289H578.56H529.749H529.579H529.408H503.979L502.272 306.094H529.408H529.579H529.749H578.56H578.731H578.901H621.909C622.251 305.853 622.421 305.611 622.763 305.289H578.901H578.731Z" fill="url(#paint60_linear_97_1464)"/>
<path d="M578.731 324.611H578.56H529.749H529.579H529.408H480.597H480.427H480.256H463.019L461.312 325.336H480.256H480.427H480.597H529.408H529.579H529.749H578.56H578.731H578.901H587.605L589.312 324.611H578.901H578.731Z" fill="url(#paint61_linear_97_1464)"/>
<path d="M578.731 328.476H578.56H529.749H529.579H529.408H480.597H480.427H480.256H454.827L453.12 329.2H480.256H480.427H480.597H529.408H529.579H529.749H578.56H578.731H578.901H579.413L581.12 328.476H578.901H578.731Z" fill="url(#paint62_linear_97_1464)"/>
<path d="M578.731 320.747H578.56H529.749H529.579H529.408H480.597H480.427H480.256H471.211L469.504 321.471H480.256H480.427H480.597H529.408H529.579H529.749H578.56H578.731H578.901H595.797L597.504 320.747H578.901H578.731Z" fill="url(#paint63_linear_97_1464)"/>
<path d="M578.731 271.234H578.901H624.469C624.299 270.992 623.957 270.751 623.787 270.429H578.901H578.731H578.56H577.707L576 271.234H578.56H578.731Z" fill="url(#paint64_linear_97_1464)"/>
<path d="M578.731 286.691H578.901H627.712H627.882H628.053H631.125C631.125 286.45 631.125 286.208 631.125 285.886H628.053H627.882H627.712H578.901H578.731H578.56H544.939L543.232 286.691H578.56H578.731Z" fill="url(#paint65_linear_97_1464)"/>
<path d="M578.731 278.963H578.901H627.712H627.883H628.053H629.419C629.248 278.721 629.248 278.48 629.077 278.158H628.053H627.883H627.712H578.901H578.731H578.56H561.323L559.616 278.963H578.56H578.731Z" fill="url(#paint66_linear_97_1464)"/>
<path d="M578.731 282.827H578.901H627.712H627.883H628.053H630.784C630.784 282.586 630.613 282.344 630.613 282.022H628.224H628.053H627.883H579.072H578.901H578.731H553.301L551.595 282.827H578.731Z" fill="url(#paint67_linear_97_1464)"/>
<path d="M578.731 275.098H578.901H627.371C627.2 274.857 627.029 274.615 626.859 274.293H578.901H578.731H578.56H569.515L567.808 275.098H578.56H578.731Z" fill="url(#paint68_linear_97_1464)"/>
<path d="M529.579 340.069H529.408H480.597H480.427H480.256H431.445H431.275H431.104H430.251L428.544 340.793H431.104H431.275H431.445H480.256H480.427H480.597H529.408H529.579H529.749H554.837L556.544 340.069H529.749H529.579Z" fill="url(#paint69_linear_97_1464)"/>
<path d="M529.579 332.34H529.408H480.597H480.427H480.256H446.635L444.928 333.064H480.256H480.427H480.597H529.408H529.579H529.749H571.221L572.928 332.34H529.749H529.579Z" fill="url(#paint70_linear_97_1464)"/>
<path d="M529.579 336.205H529.408H480.597H480.427H480.256H438.443L436.736 336.929H480.256H480.427H480.597H529.408H529.579H529.749H563.029L564.736 336.205H529.749H529.579Z" fill="url(#paint71_linear_97_1464)"/>
<path d="M529.579 347.798H529.408H480.597H480.427H480.256H431.445H431.275H431.104H413.867L412.16 348.522H431.104H431.275H431.445H480.256H480.427H480.597H529.408H529.579H529.749H538.453L540.16 347.798H529.749H529.579Z" fill="url(#paint72_linear_97_1464)"/>
<path d="M529.579 351.662H529.408H480.597H480.427H480.256H431.445H431.275H431.104H405.675L403.968 352.387H431.104H431.275H431.445H480.256H480.427H480.597H529.408H529.579H529.749H530.261L531.968 351.662H529.749H529.579Z" fill="url(#paint73_linear_97_1464)"/>
<path d="M529.579 343.933H529.408H480.597H480.427H480.256H431.445H431.275H431.104H422.059L420.352 344.658H431.104H431.275H431.445H480.256H480.427H480.597H529.408H529.579H529.749H546.645L548.352 343.933H529.749H529.579Z" fill="url(#paint74_linear_97_1464)"/>
<path d="M480.427 355.526H480.256H431.445H431.275H431.104H397.483L395.776 356.251H431.104H431.275H431.445H480.256H480.427H480.597H522.069L523.776 355.526H480.597H480.427Z" fill="url(#paint75_linear_97_1464)"/>
</g>
<g opacity="0.5">
<path d="M1378.3 157.072H1329.32H1329.15H1328.98H1280.17H1280H1279.83H1278.98L1277.27 157.877H1279.83H1280H1280.17H1328.98H1329.15H1329.32H1378.13H1378.3H1378.47H1403.56L1404.59 157.394C1404.76 157.314 1404.93 157.233 1405.1 157.072H1378.3Z" fill="url(#paint76_linear_97_1464)"/>
<path d="M1378.3 164.801H1378.13H1329.32H1329.15H1328.98H1280.17H1280H1279.83H1262.59L1260.89 165.606H1279.83H1280H1280.17H1328.98H1329.15H1329.32H1378.13H1378.3H1378.47H1387.18L1388.89 164.801H1378.47H1378.3Z" fill="url(#paint77_linear_97_1464)"/>
<path d="M1378.3 168.666H1378.13H1329.32H1329.15H1328.98H1280.17H1280H1279.83H1254.4L1252.69 169.471H1279.83H1280H1280.17H1328.98H1329.15H1329.32H1378.13H1378.3H1378.47H1378.99L1380.69 168.666H1378.47H1378.3Z" fill="url(#paint78_linear_97_1464)"/>
<path d="M1378.3 160.937H1378.13H1329.32H1329.15H1328.98H1280.17H1280H1279.83H1270.78L1269.08 161.742H1279.83H1280H1280.17H1328.98H1329.15H1329.32H1378.13H1378.3H1378.47H1395.37L1397.08 160.937H1378.47H1378.3Z" fill="url(#paint79_linear_97_1464)"/>
<path d="M1329.15 180.259H1328.98H1280.17H1280H1279.83H1231.02H1230.85H1230.68H1229.82L1228.12 181.064H1230.68H1230.85H1231.02H1279.83H1280H1280.17H1328.98H1329.15H1329.32H1354.41L1356.12 180.259H1329.32H1329.15Z" fill="url(#paint80_linear_97_1464)"/>
<path d="M1329.15 172.53H1328.98H1280.17H1280H1279.83H1246.21L1244.5 173.335H1279.83H1280H1280.17H1328.98H1329.15H1329.32H1370.79L1372.5 172.53H1329.32H1329.15Z" fill="url(#paint81_linear_97_1464)"/>
<path d="M1329.15 176.395H1328.98H1280.17H1280H1279.83H1238.02L1236.31 177.2H1279.83H1280H1280.17H1328.98H1329.15H1329.32H1362.6L1364.31 176.395H1329.32H1329.15Z" fill="url(#paint82_linear_97_1464)"/>
<path d="M1329.15 187.988H1328.98H1280.17H1280H1279.83H1231.02H1230.85H1230.68H1213.44L1211.73 188.793H1230.68H1230.85H1231.02H1279.83H1280H1280.17H1328.98H1329.15H1329.32H1338.03L1339.73 187.988H1329.32H1329.15Z" fill="url(#paint83_linear_97_1464)"/>
<path d="M1329.15 191.852H1328.98H1280.17H1280H1279.83H1231.02H1230.85H1230.68H1205.25L1203.54 192.657H1230.68H1230.85H1231.02H1279.83H1280H1280.17H1328.98H1329.15H1329.32H1329.83L1331.54 191.852H1329.32H1329.15Z" fill="url(#paint84_linear_97_1464)"/>
<path d="M1329.15 184.123H1328.98H1280.17H1280H1279.83H1231.02H1230.85H1230.68H1221.63L1219.93 184.928H1230.68H1230.85H1231.02H1279.83H1280H1280.17H1328.98H1329.15H1329.32H1346.22L1347.93 184.123H1329.32H1329.15Z" fill="url(#paint85_linear_97_1464)"/>
<path d="M1280 203.445H1279.83H1231.02H1230.85H1230.68H1181.87H1181.7H1181.53H1180.67L1178.97 204.25H1181.53H1181.7H1181.87H1230.68H1230.85H1231.02H1279.83H1280H1280.17H1305.26L1306.97 203.445H1280.17H1280Z" fill="url(#paint86_linear_97_1464)"/>
<path d="M1280 195.716H1279.83H1231.02H1230.85H1230.68H1197.06L1195.35 196.521H1230.68H1230.85H1231.02H1279.83H1280H1280.17H1321.64L1323.35 195.716H1280.17H1280Z" fill="url(#paint87_linear_97_1464)"/>
<path d="M1280 199.581H1279.83H1231.02H1230.85H1230.68H1188.86L1187.16 200.386H1230.68H1230.85H1231.02H1279.83H1280H1280.17H1313.45L1315.16 199.581H1280.17H1280Z" fill="url(#paint88_linear_97_1464)"/>
<path d="M1280 211.174H1279.83H1231.02H1230.85H1230.68H1181.87H1181.7H1181.53H1164.29L1162.58 211.979H1181.53H1181.7H1181.87H1230.68H1230.85H1231.02H1279.83H1280H1280.17H1288.87L1290.58 211.174H1280.17H1280Z" fill="url(#paint89_linear_97_1464)"/>
<path d="M1280 215.039H1279.83H1231.02H1230.85H1230.68H1181.87H1181.7H1181.53H1156.1L1154.39 215.844H1181.53H1181.7H1181.87H1230.68H1230.85H1231.02H1279.83H1280H1280.17H1280.68L1282.39 215.039H1280.17H1280Z" fill="url(#paint90_linear_97_1464)"/>
<path d="M1280 207.31H1279.83H1231.02H1230.85H1230.68H1181.87H1181.7H1181.53H1172.48L1170.77 208.115H1181.53H1181.7H1181.87H1230.68H1230.85H1231.02H1279.83H1280H1280.17H1297.07L1298.77 207.31H1280.17H1280Z" fill="url(#paint91_linear_97_1464)"/>
<path d="M1230.85 226.632H1230.68H1181.87H1181.7H1181.53H1132.71H1132.54H1132.37H1131.52L1129.81 227.437H1132.37H1132.54H1132.71H1181.53H1181.7H1181.87H1230.68H1230.85H1231.02H1256.11L1257.81 226.632H1231.02H1230.85Z" fill="url(#paint92_linear_97_1464)"/>
<path d="M1230.85 218.903H1230.68H1181.87H1181.7H1181.53H1147.9L1146.2 219.708H1181.53H1181.7H1181.87H1230.68H1230.85H1231.02H1272.49L1274.2 218.903H1231.02H1230.85Z" fill="url(#paint93_linear_97_1464)"/>
<path d="M1230.85 222.768H1230.68H1181.87H1181.7H1181.53H1139.71L1138.01 223.573H1181.53H1181.7H1181.87H1230.68H1230.85H1231.02H1264.3L1266.01 222.768H1231.02H1230.85Z" fill="url(#paint94_linear_97_1464)"/>
<path d="M1230.85 234.361H1230.68H1181.87H1181.7H1181.53H1132.71H1132.54H1132.37H1115.14L1113.43 235.166H1132.37H1132.54H1132.71H1181.53H1181.7H1181.87H1230.68H1230.85H1231.02H1239.72L1241.43 234.361H1231.02H1230.85Z" fill="url(#paint95_linear_97_1464)"/>
<path d="M1230.85 238.225H1230.68H1181.87H1181.7H1181.53H1132.71H1132.54H1132.37H1106.94L1105.24 239.03H1132.37H1132.54H1132.71H1181.53H1181.7H1181.87H1230.68H1230.85H1231.02H1231.53L1233.24 238.225H1231.02H1230.85Z" fill="url(#paint96_linear_97_1464)"/>
<path d="M1230.85 230.496H1230.68H1181.87H1181.7H1181.53H1132.71H1132.54H1132.37H1123.33L1121.62 231.301H1132.37H1132.54H1132.71H1181.53H1181.7H1181.87H1230.68H1230.85H1231.02H1247.91L1249.62 230.496H1231.02H1230.85Z" fill="url(#paint97_linear_97_1464)"/>
<path d="M1181.7 249.818H1181.53H1132.71H1132.54H1132.37H1083.56H1083.39H1083.22H1082.37L1080.66 250.623H1083.22H1083.39H1083.56H1132.37H1132.54H1132.71H1181.53H1181.7H1181.87H1206.95L1208.66 249.818H1181.87H1181.7Z" fill="url(#paint98_linear_97_1464)"/>
<path d="M1181.7 242.089H1181.53H1132.71H1132.54H1132.37H1098.75L1097.05 242.894H1132.37H1132.54H1132.71H1181.53H1181.7H1181.87H1223.34L1225.05 242.089H1181.87H1181.7Z" fill="url(#paint99_linear_97_1464)"/>
<path d="M1181.7 245.954H1181.53H1132.71H1132.54H1132.37H1090.56L1088.85 246.759H1132.37H1132.54H1132.71H1181.53H1181.7H1181.87H1215.15L1216.85 245.954H1181.87H1181.7Z" fill="url(#paint100_linear_97_1464)"/>
<path d="M1181.7 257.547H1181.53H1132.71H1132.54H1132.37H1083.56H1083.39H1083.22H1065.98L1064.28 258.352H1083.22H1083.39H1083.56H1132.37H1132.54H1132.71H1181.53H1181.7H1181.87H1190.57L1192.28 257.547H1181.87H1181.7Z" fill="url(#paint101_linear_97_1464)"/>
<path d="M1181.7 261.412H1181.53H1132.71H1132.54H1132.37H1083.56H1083.39H1083.22H1057.79L1056.09 262.217H1083.22H1083.39H1083.56H1132.37H1132.54H1132.71H1181.53H1181.7H1181.87H1182.38L1184.09 261.412H1181.87H1181.7Z" fill="url(#paint102_linear_97_1464)"/>
<path d="M1181.7 253.683H1181.53H1132.71H1132.54H1132.37H1083.56H1083.39H1083.22H1074.18L1072.47 254.488H1083.22H1083.39H1083.56H1132.37H1132.54H1132.71H1181.53H1181.7H1181.87H1198.76L1200.47 253.683H1181.87H1181.7Z" fill="url(#paint103_linear_97_1464)"/>
<path d="M1132.54 273.005H1132.37H1083.56H1083.39H1083.22H1034.41H1034.24H1034.07H1033.22L1031.51 273.81H1034.07H1034.24H1034.41H1083.22H1083.39H1083.56H1132.37H1132.54H1132.71H1157.8L1159.51 273.005H1132.71H1132.54Z" fill="url(#paint104_linear_97_1464)"/>
<path d="M1132.54 265.276H1132.37H1083.56H1083.39H1083.22H1049.6L1047.89 266.081H1083.22H1083.39H1083.56H1132.37H1132.54H1132.71H1174.19L1175.89 265.276H1132.71H1132.54Z" fill="url(#paint105_linear_97_1464)"/>
<path d="M1132.54 269.141H1132.37H1083.56H1083.39H1083.22H1041.41L1039.7 269.946H1083.22H1083.39H1083.56H1132.37H1132.54H1132.71H1165.99L1167.7 269.141H1132.71H1132.54Z" fill="url(#paint106_linear_97_1464)"/>
<path d="M1132.54 280.734H1132.37H1083.56H1083.39H1083.22H1034.41H1034.24H1034.07H1016.83L1015.13 281.539H1034.07H1034.24H1034.41H1083.22H1083.39H1083.56H1132.37H1132.54H1132.71H1141.42L1143.13 280.734H1132.71H1132.54Z" fill="url(#paint107_linear_97_1464)"/>
<path d="M1132.54 284.598H1132.37H1083.56H1083.39H1083.22H1034.41H1034.24H1034.07H1008.64L1006.93 285.403H1034.07H1034.24H1034.41H1083.22H1083.39H1083.56H1132.37H1132.54H1132.71H1133.23L1134.93 284.598H1132.71H1132.54Z" fill="url(#paint108_linear_97_1464)"/>
<path d="M1132.54 276.869H1132.37H1083.56H1083.39H1083.22H1034.41H1034.24H1034.07H1025.02L1023.32 277.674H1034.07H1034.24H1034.41H1083.22H1083.39H1083.56H1132.37H1132.54H1132.71H1149.61L1151.32 276.869H1132.71H1132.54Z" fill="url(#paint109_linear_97_1464)"/>
<path d="M1083.39 296.191H1083.22H1034.41H1034.24H1034.07H985.259H985.088H984.917H984.064L982.357 296.996H984.917H985.088H985.259H1034.07H1034.24H1034.41H1083.22H1083.39H1083.56H1108.65L1110.36 296.191H1083.56H1083.39Z" fill="url(#paint110_linear_97_1464)"/>
<path d="M1083.39 288.462H1083.22H1034.41H1034.24H1034.07H1000.45L998.741 289.267H1034.07H1034.24H1034.41H1083.22H1083.39H1083.56H1125.03L1126.74 288.462H1083.56H1083.39Z" fill="url(#paint111_linear_97_1464)"/>
<path d="M1083.39 292.327H1083.22H1034.41H1034.24H1034.07H992.256L990.549 293.132H1034.07H1034.24H1034.41H1083.22H1083.39H1083.56H1116.84L1118.55 292.327H1083.56H1083.39Z" fill="url(#paint112_linear_97_1464)"/>
<path d="M1083.39 303.92H1083.22H1034.41H1034.24H1034.07H985.259H985.088H984.917H967.68L965.973 304.725H984.917H985.088H985.259H1034.07H1034.24H1034.41H1083.22H1083.39H1083.56H1092.27L1093.97 303.92H1083.56H1083.39Z" fill="url(#paint113_linear_97_1464)"/>
<path d="M1083.39 307.785H1083.22H1034.41H1034.24H1034.07H985.259H985.088H984.917H959.488L957.781 308.59H984.917H985.088H985.259H1034.07H1034.24H1034.41H1083.22H1083.39H1083.56H1084.07L1085.78 307.785H1083.56H1083.39Z" fill="url(#paint114_linear_97_1464)"/>
<path d="M1083.39 300.056H1083.22H1034.41H1034.24H1034.07H985.259H985.088H984.917H975.872L974.165 300.861H984.917H985.088H985.259H1034.07H1034.24H1034.41H1083.22H1083.39H1083.56H1100.46L1102.17 300.056H1083.56H1083.39Z" fill="url(#paint115_linear_97_1464)"/>
<path d="M1034.24 319.378H1034.07H985.259H985.088H984.917H936.107H935.936H935.765H934.912L933.205 320.183H935.765H935.936H936.107H984.917H985.088H985.259H1034.07H1034.24H1034.41H1059.5L1061.21 319.378H1034.41H1034.24Z" fill="url(#paint116_linear_97_1464)"/>
<path d="M1034.24 311.649H1034.07H985.259H985.088H984.917H951.296L949.589 312.454H984.917H985.088H985.259H1034.07H1034.24H1034.41H1075.88L1077.59 311.649H1034.41H1034.24Z" fill="url(#paint117_linear_97_1464)"/>
<path d="M1034.24 315.514H1034.07H985.259H985.088H984.917H943.104L941.397 316.319H984.917H985.088H985.259H1034.07H1034.24H1034.41H1067.69L1069.4 315.514H1034.41H1034.24Z" fill="url(#paint118_linear_97_1464)"/>
<path d="M1034.24 327.107H1034.07H985.259H985.088H984.917H936.107H935.936H935.765H918.528L916.821 327.912H935.765H935.936H936.107H984.917H985.088H985.259H1034.07H1034.24H1034.41H1043.11L1044.82 327.107H1034.41H1034.24Z" fill="url(#paint119_linear_97_1464)"/>
<path d="M1034.24 330.971H1034.07H985.259H985.088H984.917H936.107H935.936H935.765H910.336L908.629 331.776H935.765H935.936H936.107H984.917H985.088H985.259H1034.07H1034.24H1034.41H1034.92L1036.63 330.971H1034.41H1034.24Z" fill="url(#paint120_linear_97_1464)"/>
<path d="M1034.24 323.242H1034.07H985.259H985.088H984.917H936.107H935.936H935.765H926.72L925.013 324.047H935.765H935.936H936.107H984.917H985.088H985.259H1034.07H1034.24H1034.41H1051.31L1053.01 323.242H1034.41H1034.24Z" fill="url(#paint121_linear_97_1464)"/>
<path d="M985.088 342.564H984.917H936.107H935.936H935.765H886.955H886.784H886.613H885.76L884.053 343.37H886.613H886.784H886.955H935.765H935.936H936.107H984.917H985.088H985.259H1010.35L1012.05 342.564H985.259H985.088Z" fill="url(#paint122_linear_97_1464)"/>
<path d="M985.088 334.835H984.917H936.107H935.936H935.765H902.144L900.437 335.641H935.765H935.936H936.107H984.917H985.088H985.259H1026.73L1028.44 334.835H985.259H985.088Z" fill="url(#paint123_linear_97_1464)"/>
<path d="M985.088 338.7H984.917H936.107H935.936H935.765H893.952L892.245 339.505H935.765H935.936H936.107H984.917H985.088H985.259H1018.54L1020.25 338.7H985.259H985.088Z" fill="url(#paint124_linear_97_1464)"/>
<path d="M985.088 350.293H984.917H936.107H935.936H935.765H886.955H886.784H886.613H869.376L867.669 351.099H886.613H886.784H886.955H935.765H935.936H936.107H984.917H985.088H985.259H993.963L995.669 350.293H985.259H985.088Z" fill="url(#paint125_linear_97_1464)"/>
<path d="M985.088 354.158H984.917H936.107H935.936H935.765H886.955H886.784H886.613H861.184L859.477 354.963H886.613H886.784H886.955H935.765H935.936H936.107H984.917H985.088H985.259H985.771L987.477 354.158H985.259H985.088Z" fill="url(#paint126_linear_97_1464)"/>
<path d="M985.088 346.429H984.917H936.107H935.936H935.765H886.955H886.784H886.613H877.568L875.861 347.234H886.613H886.784H886.955H935.765H935.936H936.107H984.917H985.088H985.259H1002.15L1003.86 346.429H985.259H985.088Z" fill="url(#paint127_linear_97_1464)"/>
</g>
<path opacity="0.5" d="M671.403 270.026L1296.04 -24.6357C1330.86 -8.21195 1330.86 18.517 1296.04 34.9407L671.403 329.603C636.587 313.179 636.587 286.531 671.403 270.026Z" fill="url(#paint128_linear_97_1464)"/>
<path opacity="0.5" d="M598.357 498.43L1223 203.768C1257.81 220.191 1257.81 246.92 1223 263.344L598.357 558.006C563.541 541.582 563.541 514.934 598.357 498.43Z" fill="url(#paint129_linear_97_1464)"/>
<path opacity="0.5" d="M623.957 156.75L-0.682678 451.412C-35.4987 434.989 -35.4987 408.26 -0.682678 391.836L623.957 97.1738C658.944 113.598 658.944 140.327 623.957 156.75Z" fill="url(#paint130_linear_97_1464)"/>
<path opacity="0.5" d="M-61.6107 261.17L563.029 -33.4917C597.845 -17.0679 597.845 9.661 563.029 26.0848L-61.6107 320.747C-96.4267 304.243 -96.4267 277.594 -61.6107 261.17Z" fill="url(#paint131_linear_97_1464)"/>
<path opacity="0.5" d="M576.853 303.437L665.429 261.653C680.448 268.738 680.448 280.17 665.429 287.175L576.853 328.959C561.835 321.954 561.835 310.522 576.853 303.437Z" fill="url(#paint132_linear_97_1464)"/>
</g>
</g>
<defs>
<linearGradient id="paint0_linear_97_1464" x1="106.607" y1="452.882" x2="494.926" y2="-370.296" gradientUnits="userSpaceOnUse">
<stop stop-color="#00718A"/>
<stop offset="1" stop-color="#00475F"/>
</linearGradient>
<linearGradient id="paint1_linear_97_1464" x1="526.071" y1="266.69" x2="654.185" y2="-4.89137" gradientUnits="userSpaceOnUse">
<stop stop-color="#00B4DB"/>
<stop offset="1"/>
</linearGradient>
<linearGradient id="paint2_linear_97_1464" x1="841.167" y1="315.758" x2="895.375" y2="200.845" gradientUnits="userSpaceOnUse">
<stop stop-color="#00B4DB"/>
<stop offset="1"/>
</linearGradient>
<linearGradient id="paint3_linear_97_1464" x1="709.712" y1="238.417" x2="783.309" y2="82.4017" gradientUnits="userSpaceOnUse">
<stop stop-color="#00B4DB"/>
<stop offset="1"/>
</linearGradient>
<linearGradient id="paint4_linear_97_1464" x1="570.566" y1="86.4083" x2="595.972" y2="32.552" gradientUnits="userSpaceOnUse">
<stop stop-color="#00B4DB"/>
<stop offset="1" stop-color="#0083B0"/>
</linearGradient>
<linearGradient id="paint5_linear_97_1464" x1="41.6256" y1="182.987" x2="67.0313" y2="129.13" gradientUnits="userSpaceOnUse">
<stop stop-color="#00B4DB"/>
<stop offset="1" stop-color="#0083B0"/>
</linearGradient>
<linearGradient id="paint6_linear_97_1464" x1="342.962" y1="381.627" x2="368.367" y2="327.771" gradientUnits="userSpaceOnUse">
<stop stop-color="#00B4DB"/>
<stop offset="1" stop-color="#0083B0"/>
</linearGradient>
<linearGradient id="paint7_linear_97_1464" x1="1099.51" y1="234.018" x2="1124.91" y2="180.162" gradientUnits="userSpaceOnUse">
<stop stop-color="#00B4DB"/>
<stop offset="1" stop-color="#0083B0"/>
</linearGradient>
<linearGradient id="paint8_linear_97_1464" x1="852.557" y1="171.032" x2="877.963" y2="117.176" gradientUnits="userSpaceOnUse">
<stop stop-color="#00B4DB"/>
<stop offset="1" stop-color="#0083B0"/>
</linearGradient>
<linearGradient id="paint9_linear_97_1464" x1="532.514" y1="241.091" x2="557.919" y2="187.235" gradientUnits="userSpaceOnUse">
<stop stop-color="#00B4DB"/>
<stop offset="1" stop-color="#0083B0"/>
</linearGradient>
<linearGradient id="paint10_linear_97_1464" x1="916.281" y1="231.01" x2="799.9" y2="477.722" gradientUnits="userSpaceOnUse">
<stop stop-color="#00B4DB"/>
<stop offset="1"/>
</linearGradient>
<linearGradient id="paint11_linear_97_1464" x1="1084.37" y1="151.719" x2="924.105" y2="491.453" gradientUnits="userSpaceOnUse">
<stop stop-color="#00B4DB"/>
<stop offset="1"/>
</linearGradient>
<linearGradient id="paint12_linear_97_1464" x1="656.615" y1="0.0642575" x2="784.549" y2="0.0642575" gradientUnits="userSpaceOnUse">
<stop stop-color="#00B4DB"/>
<stop offset="1"/>
</linearGradient>
<linearGradient id="paint13_linear_97_1464" x1="632.039" y1="11.6574" x2="759.973" y2="11.6574" gradientUnits="userSpaceOnUse">
<stop stop-color="#00B4DB"/>
<stop offset="1"/>
</linearGradient>
<linearGradient id="paint14_linear_97_1464" x1="648.423" y1="3.92835" x2="776.357" y2="3.92835" gradientUnits="userSpaceOnUse">
<stop stop-color="#00B4DB"/>
<stop offset="1"/>
</linearGradient>
<linearGradient id="paint15_linear_97_1464" x1="640.23" y1="7.79334" x2="768.165" y2="7.79334" gradientUnits="userSpaceOnUse">
<stop stop-color="#00B4DB"/>
<stop offset="1"/>
</linearGradient>
<linearGradient id="paint16_linear_97_1464" x1="615.655" y1="19.3865" x2="743.589" y2="19.3865" gradientUnits="userSpaceOnUse">
<stop stop-color="#00B4DB"/>
<stop offset="1"/>
</linearGradient>
<linearGradient id="paint17_linear_97_1464" x1="607.463" y1="23.2506" x2="735.397" y2="23.2506" gradientUnits="userSpaceOnUse">
<stop stop-color="#00B4DB"/>
<stop offset="1"/>
</linearGradient>
<linearGradient id="paint18_linear_97_1464" x1="623.846" y1="15.5219" x2="751.781" y2="15.5219" gradientUnits="userSpaceOnUse">
<stop stop-color="#00B4DB"/>
<stop offset="1"/>
</linearGradient>
<linearGradient id="paint19_linear_97_1464" x1="582.886" y1="34.8442" x2="710.821" y2="34.8442" gradientUnits="userSpaceOnUse">
<stop stop-color="#00B4DB"/>
<stop offset="1"/>
</linearGradient>
<linearGradient id="paint20_linear_97_1464" x1="599.27" y1="27.1151" x2="727.205" y2="27.1151" gradientUnits="userSpaceOnUse">
<stop stop-color="#00B4DB"/>
<stop offset="1"/>
</linearGradient>
<linearGradient id="paint21_linear_97_1464" x1="591.079" y1="30.9797" x2="719.013" y2="30.9797" gradientUnits="userSpaceOnUse">
<stop stop-color="#00B4DB"/>
<stop offset="1"/>
</linearGradient>
<linearGradient id="paint22_linear_97_1464" x1="566.503" y1="42.5729" x2="694.437" y2="42.5729" gradientUnits="userSpaceOnUse">
<stop stop-color="#00B4DB"/>
<stop offset="1"/>
</linearGradient>
<linearGradient id="paint23_linear_97_1464" x1="558.31" y1="46.4374" x2="686.245" y2="46.4374" gradientUnits="userSpaceOnUse">
<stop stop-color="#00B4DB"/>
<stop offset="1"/>
</linearGradient>
<linearGradient id="paint24_linear_97_1464" x1="574.695" y1="38.7083" x2="702.629" y2="38.7083" gradientUnits="userSpaceOnUse">
<stop stop-color="#00B4DB"/>
<stop offset="1"/>
</linearGradient>
<linearGradient id="paint25_linear_97_1464" x1="533.735" y1="58.0306" x2="661.669" y2="58.0306" gradientUnits="userSpaceOnUse">
<stop stop-color="#00B4DB"/>
<stop offset="1"/>
</linearGradient>
<linearGradient id="paint26_linear_97_1464" x1="550.119" y1="50.3015" x2="678.053" y2="50.3015" gradientUnits="userSpaceOnUse">
<stop stop-color="#00B4DB"/>
<stop offset="1"/>
</linearGradient>
<linearGradient id="paint27_linear_97_1464" x1="541.926" y1="54.1665" x2="669.86" y2="54.1665" gradientUnits="userSpaceOnUse">
<stop stop-color="#00B4DB"/>
<stop offset="1"/>
</linearGradient>
<linearGradient id="paint28_linear_97_1464" x1="517.35" y1="65.7596" x2="645.285" y2="65.7596" gradientUnits="userSpaceOnUse">
<stop stop-color="#00B4DB"/>
<stop offset="1"/>
</linearGradient>
<linearGradient id="paint29_linear_97_1464" x1="509.159" y1="69.6237" x2="637.093" y2="69.6237" gradientUnits="userSpaceOnUse">
<stop stop-color="#00B4DB"/>
<stop offset="1"/>
</linearGradient>
<linearGradient id="paint30_linear_97_1464" x1="525.543" y1="61.8947" x2="653.477" y2="61.8947" gradientUnits="userSpaceOnUse">
<stop stop-color="#00B4DB"/>
<stop offset="1"/>
</linearGradient>
<linearGradient id="paint31_linear_97_1464" x1="484.583" y1="81.2169" x2="612.517" y2="81.2169" gradientUnits="userSpaceOnUse">
<stop stop-color="#00B4DB"/>
<stop offset="1"/>
</linearGradient>
<linearGradient id="paint32_linear_97_1464" x1="500.966" y1="73.4882" x2="628.901" y2="73.4882" gradientUnits="userSpaceOnUse">
<stop stop-color="#00B4DB"/>
<stop offset="1"/>
</linearGradient>
<linearGradient id="paint33_linear_97_1464" x1="492.775" y1="77.3528" x2="620.709" y2="77.3528" gradientUnits="userSpaceOnUse">
<stop stop-color="#00B4DB"/>
<stop offset="1"/>
</linearGradient>
<linearGradient id="paint34_linear_97_1464" x1="469.741" y1="88.946" x2="596.133" y2="88.946" gradientUnits="userSpaceOnUse">
<stop stop-color="#00B4DB"/>
<stop offset="1"/>
</linearGradient>
<linearGradient id="paint35_linear_97_1464" x1="464.449" y1="92.8105" x2="587.941" y2="92.8105" gradientUnits="userSpaceOnUse">
<stop stop-color="#00B4DB"/>
<stop offset="1"/>
</linearGradient>
<linearGradient id="paint36_linear_97_1464" x1="476.511" y1="85.0814" x2="604.325" y2="85.0814" gradientUnits="userSpaceOnUse">
<stop stop-color="#00B4DB"/>
<stop offset="1"/>
</linearGradient>
<linearGradient id="paint37_linear_97_1464" x1="454.897" y1="104.404" x2="563.365" y2="104.404" gradientUnits="userSpaceOnUse">
<stop stop-color="#00B4DB"/>
<stop offset="1"/>
</linearGradient>
<linearGradient id="paint38_linear_97_1464" x1="460.311" y1="96.6746" x2="579.749" y2="96.6746" gradientUnits="userSpaceOnUse">
<stop stop-color="#00B4DB"/>
<stop offset="1"/>
</linearGradient>
<linearGradient id="paint39_linear_97_1464" x1="457.163" y1="100.539" x2="571.557" y2="100.539" gradientUnits="userSpaceOnUse">
<stop stop-color="#00B4DB"/>
<stop offset="1"/>
</linearGradient>
<linearGradient id="paint40_linear_97_1464" x1="452.754" y1="112.133" x2="546.981" y2="112.133" gradientUnits="userSpaceOnUse">
<stop stop-color="#00B4DB"/>
<stop offset="1"/>
</linearGradient>
<linearGradient id="paint41_linear_97_1464" x1="452.75" y1="115.997" x2="538.789" y2="115.997" gradientUnits="userSpaceOnUse">
<stop stop-color="#00B4DB"/>
<stop offset="1"/>
</linearGradient>
<linearGradient id="paint42_linear_97_1464" x1="453.442" y1="108.268" x2="555.173" y2="108.268" gradientUnits="userSpaceOnUse">
<stop stop-color="#00B4DB"/>
<stop offset="1"/>
</linearGradient>
<linearGradient id="paint43_linear_97_1464" x1="457.107" y1="127.59" x2="514.213" y2="127.59" gradientUnits="userSpaceOnUse">
<stop stop-color="#00B4DB"/>
<stop offset="1"/>
</linearGradient>
<linearGradient id="paint44_linear_97_1464" x1="453.42" y1="119.861" x2="530.597" y2="119.861" gradientUnits="userSpaceOnUse">
<stop stop-color="#00B4DB"/>
<stop offset="1"/>
</linearGradient>
<linearGradient id="paint45_linear_97_1464" x1="454.859" y1="123.726" x2="522.405" y2="123.726" gradientUnits="userSpaceOnUse">
<stop stop-color="#00B4DB"/>
<stop offset="1"/>
</linearGradient>
<linearGradient id="paint46_linear_97_1464" x1="464.351" y1="135.319" x2="497.829" y2="135.319" gradientUnits="userSpaceOnUse">
<stop stop-color="#00B4DB"/>
<stop offset="1"/>
</linearGradient>
<linearGradient id="paint47_linear_97_1464" x1="469.619" y1="139.183" x2="489.637" y2="139.183" gradientUnits="userSpaceOnUse">
<stop stop-color="#00B4DB"/>
<stop offset="1"/>
</linearGradient>
<linearGradient id="paint48_linear_97_1464" x1="460.235" y1="131.455" x2="506.021" y2="131.455" gradientUnits="userSpaceOnUse">
<stop stop-color="#00B4DB"/>
<stop offset="1"/>
</linearGradient>
<linearGradient id="paint49_linear_97_1464" x1="476.345" y1="143.048" x2="481.445" y2="143.048" gradientUnits="userSpaceOnUse">
<stop stop-color="#00B4DB"/>
<stop offset="1"/>
</linearGradient>
<linearGradient id="paint50_linear_97_1464" x1="526.878" y1="294.049" x2="630.189" y2="294.049" gradientUnits="userSpaceOnUse">
<stop stop-color="#00B4DB"/>
<stop offset="1"/>
</linearGradient>
<linearGradient id="paint51_linear_97_1464" x1="535.069" y1="290.185" x2="631.036" y2="290.185" gradientUnits="userSpaceOnUse">
<stop stop-color="#00B4DB"/>
<stop offset="1"/>
</linearGradient>
<linearGradient id="paint52_linear_97_1464" x1="518.686" y1="297.913" x2="628.565" y2="297.913" gradientUnits="userSpaceOnUse">
<stop stop-color="#00B4DB"/>
<stop offset="1"/>
</linearGradient>
<linearGradient id="paint53_linear_97_1464" x1="592.413" y1="263.134" x2="615.531" y2="263.134" gradientUnits="userSpaceOnUse">
<stop stop-color="#00B4DB"/>
<stop offset="1"/>
</linearGradient>
<linearGradient id="paint54_linear_97_1464" x1="584.222" y1="266.999" x2="620.544" y2="266.999" gradientUnits="userSpaceOnUse">
<stop stop-color="#00B4DB"/>
<stop offset="1"/>
</linearGradient>
<linearGradient id="paint55_linear_97_1464" x1="600.606" y1="259.269" x2="609.167" y2="259.269" gradientUnits="userSpaceOnUse">
<stop stop-color="#00B4DB"/>
<stop offset="1"/>
</linearGradient>
<linearGradient id="paint56_linear_97_1464" x1="477.726" y1="317.236" x2="605.63" y2="317.236" gradientUnits="userSpaceOnUse">
<stop stop-color="#00B4DB"/>
<stop offset="1"/>
</linearGradient>
<linearGradient id="paint57_linear_97_1464" x1="494.109" y1="309.507" x2="618.357" y2="309.507" gradientUnits="userSpaceOnUse">
<stop stop-color="#00B4DB"/>
<stop offset="1"/>
</linearGradient>
<linearGradient id="paint58_linear_97_1464" x1="510.494" y1="301.778" x2="626.113" y2="301.778" gradientUnits="userSpaceOnUse">
<stop stop-color="#00B4DB"/>
<stop offset="1"/>
</linearGradient>
<linearGradient id="paint59_linear_97_1464" x1="485.918" y1="313.372" x2="612.744" y2="313.372" gradientUnits="userSpaceOnUse">
<stop stop-color="#00B4DB"/>
<stop offset="1"/>
</linearGradient>
<linearGradient id="paint60_linear_97_1464" x1="502.302" y1="305.643" x2="622.752" y2="305.643" gradientUnits="userSpaceOnUse">
<stop stop-color="#00B4DB"/>
<stop offset="1"/>
</linearGradient>
<linearGradient id="paint61_linear_97_1464" x1="461.342" y1="324.965" x2="589.276" y2="324.965" gradientUnits="userSpaceOnUse">
<stop stop-color="#00B4DB"/>
<stop offset="1"/>
</linearGradient>
<linearGradient id="paint62_linear_97_1464" x1="453.149" y1="328.829" x2="581.083" y2="328.829" gradientUnits="userSpaceOnUse">
<stop stop-color="#00B4DB"/>
<stop offset="1"/>
</linearGradient>
<linearGradient id="paint63_linear_97_1464" x1="469.533" y1="321.1" x2="597.468" y2="321.1" gradientUnits="userSpaceOnUse">
<stop stop-color="#00B4DB"/>
<stop offset="1"/>
</linearGradient>
<linearGradient id="paint64_linear_97_1464" x1="576.029" y1="270.863" x2="624.436" y2="270.863" gradientUnits="userSpaceOnUse">
<stop stop-color="#00B4DB"/>
<stop offset="1"/>
</linearGradient>
<linearGradient id="paint65_linear_97_1464" x1="543.262" y1="286.32" x2="631.171" y2="286.32" gradientUnits="userSpaceOnUse">
<stop stop-color="#00B4DB"/>
<stop offset="1"/>
</linearGradient>
<linearGradient id="paint66_linear_97_1464" x1="559.646" y1="278.592" x2="629.418" y2="278.592" gradientUnits="userSpaceOnUse">
<stop stop-color="#00B4DB"/>
<stop offset="1"/>
</linearGradient>
<linearGradient id="paint67_linear_97_1464" x1="551.454" y1="282.456" x2="630.676" y2="282.456" gradientUnits="userSpaceOnUse">
<stop stop-color="#00B4DB"/>
<stop offset="1"/>
</linearGradient>
<linearGradient id="paint68_linear_97_1464" x1="567.838" y1="274.727" x2="627.36" y2="274.727" gradientUnits="userSpaceOnUse">
<stop stop-color="#00B4DB"/>
<stop offset="1"/>
</linearGradient>
<linearGradient id="paint69_linear_97_1464" x1="428.573" y1="340.423" x2="556.508" y2="340.423" gradientUnits="userSpaceOnUse">
<stop stop-color="#00B4DB"/>
<stop offset="1"/>
</linearGradient>
<linearGradient id="paint70_linear_97_1464" x1="444.958" y1="332.693" x2="572.892" y2="332.693" gradientUnits="userSpaceOnUse">
<stop stop-color="#00B4DB"/>
<stop offset="1"/>
</linearGradient>
<linearGradient id="paint71_linear_97_1464" x1="436.766" y1="336.558" x2="564.7" y2="336.558" gradientUnits="userSpaceOnUse">
<stop stop-color="#00B4DB"/>
<stop offset="1"/>
</linearGradient>
<linearGradient id="paint72_linear_97_1464" x1="412.189" y1="348.152" x2="540.123" y2="348.152" gradientUnits="userSpaceOnUse">
<stop stop-color="#00B4DB"/>
<stop offset="1"/>
</linearGradient>
<linearGradient id="paint73_linear_97_1464" x1="403.998" y1="352.016" x2="531.932" y2="352.016" gradientUnits="userSpaceOnUse">
<stop stop-color="#00B4DB"/>
<stop offset="1"/>
</linearGradient>
<linearGradient id="paint74_linear_97_1464" x1="420.382" y1="344.287" x2="548.316" y2="344.287" gradientUnits="userSpaceOnUse">
<stop stop-color="#00B4DB"/>
<stop offset="1"/>
</linearGradient>
<linearGradient id="paint75_linear_97_1464" x1="395.806" y1="355.88" x2="523.74" y2="355.88" gradientUnits="userSpaceOnUse">
<stop stop-color="#00B4DB"/>
<stop offset="1"/>
</linearGradient>
<linearGradient id="paint76_linear_97_1464" x1="1277.34" y1="157.483" x2="1405.24" y2="157.483" gradientUnits="userSpaceOnUse">
<stop stop-color="#00B4DB"/>
<stop offset="1"/>
</linearGradient>
<linearGradient id="paint77_linear_97_1464" x1="1260.95" y1="165.212" x2="1388.89" y2="165.212" gradientUnits="userSpaceOnUse">
<stop stop-color="#00B4DB"/>
<stop offset="1"/>
</linearGradient>
<linearGradient id="paint78_linear_97_1464" x1="1252.76" y1="169.077" x2="1380.69" y2="169.077" gradientUnits="userSpaceOnUse">
<stop stop-color="#00B4DB"/>
<stop offset="1"/>
</linearGradient>
<linearGradient id="paint79_linear_97_1464" x1="1269.14" y1="161.348" x2="1397.08" y2="161.348" gradientUnits="userSpaceOnUse">
<stop stop-color="#00B4DB"/>
<stop offset="1"/>
</linearGradient>
<linearGradient id="paint80_linear_97_1464" x1="1228.18" y1="180.67" x2="1356.12" y2="180.67" gradientUnits="userSpaceOnUse">
<stop stop-color="#00B4DB"/>
<stop offset="1"/>
</linearGradient>
<linearGradient id="paint81_linear_97_1464" x1="1244.57" y1="172.941" x2="1372.5" y2="172.941" gradientUnits="userSpaceOnUse">
<stop stop-color="#00B4DB"/>
<stop offset="1"/>
</linearGradient>
<linearGradient id="paint82_linear_97_1464" x1="1236.38" y1="176.806" x2="1364.31" y2="176.806" gradientUnits="userSpaceOnUse">
<stop stop-color="#00B4DB"/>
<stop offset="1"/>
</linearGradient>
<linearGradient id="paint83_linear_97_1464" x1="1211.8" y1="188.399" x2="1339.73" y2="188.399" gradientUnits="userSpaceOnUse">
<stop stop-color="#00B4DB"/>
<stop offset="1"/>
</linearGradient>
<linearGradient id="paint84_linear_97_1464" x1="1203.61" y1="192.263" x2="1331.54" y2="192.263" gradientUnits="userSpaceOnUse">
<stop stop-color="#00B4DB"/>
<stop offset="1"/>
</linearGradient>
<linearGradient id="paint85_linear_97_1464" x1="1219.99" y1="184.534" x2="1347.93" y2="184.534" gradientUnits="userSpaceOnUse">
<stop stop-color="#00B4DB"/>
<stop offset="1"/>
</linearGradient>
<linearGradient id="paint86_linear_97_1464" x1="1179.03" y1="203.856" x2="1306.97" y2="203.856" gradientUnits="userSpaceOnUse">
<stop stop-color="#00B4DB"/>
<stop offset="1"/>
</linearGradient>
<linearGradient id="paint87_linear_97_1464" x1="1195.42" y1="196.127" x2="1323.35" y2="196.127" gradientUnits="userSpaceOnUse">
<stop stop-color="#00B4DB"/>
<stop offset="1"/>
</linearGradient>
<linearGradient id="paint88_linear_97_1464" x1="1187.22" y1="199.992" x2="1315.16" y2="199.992" gradientUnits="userSpaceOnUse">
<stop stop-color="#00B4DB"/>
<stop offset="1"/>
</linearGradient>
<linearGradient id="paint89_linear_97_1464" x1="1162.65" y1="211.585" x2="1290.58" y2="211.585" gradientUnits="userSpaceOnUse">
<stop stop-color="#00B4DB"/>
<stop offset="1"/>
</linearGradient>
<linearGradient id="paint90_linear_97_1464" x1="1154.46" y1="215.45" x2="1282.39" y2="215.45" gradientUnits="userSpaceOnUse">
<stop stop-color="#00B4DB"/>
<stop offset="1"/>
</linearGradient>
<linearGradient id="paint91_linear_97_1464" x1="1170.84" y1="207.721" x2="1298.77" y2="207.721" gradientUnits="userSpaceOnUse">
<stop stop-color="#00B4DB"/>
<stop offset="1"/>
</linearGradient>
<linearGradient id="paint92_linear_97_1464" x1="1129.88" y1="227.043" x2="1257.81" y2="227.043" gradientUnits="userSpaceOnUse">
<stop stop-color="#00B4DB"/>
<stop offset="1"/>
</linearGradient>
<linearGradient id="paint93_linear_97_1464" x1="1146.26" y1="219.314" x2="1274.2" y2="219.314" gradientUnits="userSpaceOnUse">
<stop stop-color="#00B4DB"/>
<stop offset="1"/>
</linearGradient>
<linearGradient id="paint94_linear_97_1464" x1="1138.07" y1="223.179" x2="1266.01" y2="223.179" gradientUnits="userSpaceOnUse">
<stop stop-color="#00B4DB"/>
<stop offset="1"/>
</linearGradient>
<linearGradient id="paint95_linear_97_1464" x1="1113.5" y1="234.772" x2="1241.43" y2="234.772" gradientUnits="userSpaceOnUse">
<stop stop-color="#00B4DB"/>
<stop offset="1"/>
</linearGradient>
<linearGradient id="paint96_linear_97_1464" x1="1105.3" y1="238.636" x2="1233.24" y2="238.636" gradientUnits="userSpaceOnUse">
<stop stop-color="#00B4DB"/>
<stop offset="1"/>
</linearGradient>
<linearGradient id="paint97_linear_97_1464" x1="1121.69" y1="230.907" x2="1249.62" y2="230.907" gradientUnits="userSpaceOnUse">
<stop stop-color="#00B4DB"/>
<stop offset="1"/>
</linearGradient>
<linearGradient id="paint98_linear_97_1464" x1="1080.73" y1="250.23" x2="1208.66" y2="250.23" gradientUnits="userSpaceOnUse">
<stop stop-color="#00B4DB"/>
<stop offset="1"/>
</linearGradient>
<linearGradient id="paint99_linear_97_1464" x1="1097.11" y1="242.5" x2="1225.05" y2="242.5" gradientUnits="userSpaceOnUse">
<stop stop-color="#00B4DB"/>
<stop offset="1"/>
</linearGradient>
<linearGradient id="paint100_linear_97_1464" x1="1088.92" y1="246.365" x2="1216.85" y2="246.365" gradientUnits="userSpaceOnUse">
<stop stop-color="#00B4DB"/>
<stop offset="1"/>
</linearGradient>
<linearGradient id="paint101_linear_97_1464" x1="1064.34" y1="257.959" x2="1192.28" y2="257.959" gradientUnits="userSpaceOnUse">
<stop stop-color="#00B4DB"/>
<stop offset="1"/>
</linearGradient>
<linearGradient id="paint102_linear_97_1464" x1="1056.15" y1="261.823" x2="1184.09" y2="261.823" gradientUnits="userSpaceOnUse">
<stop stop-color="#00B4DB"/>
<stop offset="1"/>
</linearGradient>
<linearGradient id="paint103_linear_97_1464" x1="1072.54" y1="254.094" x2="1200.47" y2="254.094" gradientUnits="userSpaceOnUse">
<stop stop-color="#00B4DB"/>
<stop offset="1"/>
</linearGradient>
<linearGradient id="paint104_linear_97_1464" x1="1031.58" y1="273.416" x2="1159.51" y2="273.416" gradientUnits="userSpaceOnUse">
<stop stop-color="#00B4DB"/>
<stop offset="1"/>
</linearGradient>
<linearGradient id="paint105_linear_97_1464" x1="1047.96" y1="265.687" x2="1175.89" y2="265.687" gradientUnits="userSpaceOnUse">
<stop stop-color="#00B4DB"/>
<stop offset="1"/>
</linearGradient>
<linearGradient id="paint106_linear_97_1464" x1="1039.77" y1="269.552" x2="1167.7" y2="269.552" gradientUnits="userSpaceOnUse">
<stop stop-color="#00B4DB"/>
<stop offset="1"/>
</linearGradient>
<linearGradient id="paint107_linear_97_1464" x1="1015.19" y1="281.145" x2="1143.13" y2="281.145" gradientUnits="userSpaceOnUse">
<stop stop-color="#00B4DB"/>
<stop offset="1"/>
</linearGradient>
<linearGradient id="paint108_linear_97_1464" x1="1007" y1="285.009" x2="1134.93" y2="285.009" gradientUnits="userSpaceOnUse">
<stop stop-color="#00B4DB"/>
<stop offset="1"/>
</linearGradient>
<linearGradient id="paint109_linear_97_1464" x1="1023.38" y1="277.28" x2="1151.32" y2="277.28" gradientUnits="userSpaceOnUse">
<stop stop-color="#00B4DB"/>
<stop offset="1"/>
</linearGradient>
<linearGradient id="paint110_linear_97_1464" x1="982.423" y1="296.603" x2="1110.36" y2="296.603" gradientUnits="userSpaceOnUse">
<stop stop-color="#00B4DB"/>
<stop offset="1"/>
</linearGradient>
<linearGradient id="paint111_linear_97_1464" x1="998.808" y1="288.873" x2="1126.74" y2="288.873" gradientUnits="userSpaceOnUse">
<stop stop-color="#00B4DB"/>
<stop offset="1"/>
</linearGradient>
<linearGradient id="paint112_linear_97_1464" x1="990.616" y1="292.738" x2="1118.55" y2="292.738" gradientUnits="userSpaceOnUse">
<stop stop-color="#00B4DB"/>
<stop offset="1"/>
</linearGradient>
<linearGradient id="paint113_linear_97_1464" x1="966.039" y1="304.332" x2="1093.97" y2="304.332" gradientUnits="userSpaceOnUse">
<stop stop-color="#00B4DB"/>
<stop offset="1"/>
</linearGradient>
<linearGradient id="paint114_linear_97_1464" x1="957.848" y1="308.196" x2="1085.78" y2="308.196" gradientUnits="userSpaceOnUse">
<stop stop-color="#00B4DB"/>
<stop offset="1"/>
</linearGradient>
<linearGradient id="paint115_linear_97_1464" x1="974.232" y1="300.467" x2="1102.17" y2="300.467" gradientUnits="userSpaceOnUse">
<stop stop-color="#00B4DB"/>
<stop offset="1"/>
</linearGradient>
<linearGradient id="paint116_linear_97_1464" x1="933.272" y1="319.789" x2="1061.21" y2="319.789" gradientUnits="userSpaceOnUse">
<stop stop-color="#00B4DB"/>
<stop offset="1"/>
</linearGradient>
<linearGradient id="paint117_linear_97_1464" x1="949.656" y1="312.06" x2="1077.59" y2="312.06" gradientUnits="userSpaceOnUse">
<stop stop-color="#00B4DB"/>
<stop offset="1"/>
</linearGradient>
<linearGradient id="paint118_linear_97_1464" x1="941.463" y1="315.925" x2="1069.4" y2="315.925" gradientUnits="userSpaceOnUse">
<stop stop-color="#00B4DB"/>
<stop offset="1"/>
</linearGradient>
<linearGradient id="paint119_linear_97_1464" x1="916.888" y1="327.518" x2="1044.82" y2="327.518" gradientUnits="userSpaceOnUse">
<stop stop-color="#00B4DB"/>
<stop offset="1"/>
</linearGradient>
<linearGradient id="paint120_linear_97_1464" x1="908.696" y1="331.382" x2="1036.63" y2="331.382" gradientUnits="userSpaceOnUse">
<stop stop-color="#00B4DB"/>
<stop offset="1"/>
</linearGradient>
<linearGradient id="paint121_linear_97_1464" x1="925.079" y1="323.654" x2="1053.01" y2="323.654" gradientUnits="userSpaceOnUse">
<stop stop-color="#00B4DB"/>
<stop offset="1"/>
</linearGradient>
<linearGradient id="paint122_linear_97_1464" x1="884.119" y1="342.976" x2="1012.05" y2="342.976" gradientUnits="userSpaceOnUse">
<stop stop-color="#00B4DB"/>
<stop offset="1"/>
</linearGradient>
<linearGradient id="paint123_linear_97_1464" x1="900.503" y1="335.247" x2="1028.44" y2="335.247" gradientUnits="userSpaceOnUse">
<stop stop-color="#00B4DB"/>
<stop offset="1"/>
</linearGradient>
<linearGradient id="paint124_linear_97_1464" x1="892.312" y1="339.111" x2="1020.25" y2="339.111" gradientUnits="userSpaceOnUse">
<stop stop-color="#00B4DB"/>
<stop offset="1"/>
</linearGradient>
<linearGradient id="paint125_linear_97_1464" x1="867.736" y1="350.704" x2="995.67" y2="350.704" gradientUnits="userSpaceOnUse">
<stop stop-color="#00B4DB"/>
<stop offset="1"/>
</linearGradient>
<linearGradient id="paint126_linear_97_1464" x1="859.543" y1="354.569" x2="987.478" y2="354.569" gradientUnits="userSpaceOnUse">
<stop stop-color="#00B4DB"/>
<stop offset="1"/>
</linearGradient>
<linearGradient id="paint127_linear_97_1464" x1="875.928" y1="346.84" x2="1003.86" y2="346.84" gradientUnits="userSpaceOnUse">
<stop stop-color="#00B4DB"/>
<stop offset="1"/>
</linearGradient>
<linearGradient id="paint128_linear_97_1464" x1="1421.36" y1="-53.9118" x2="1261.09" y2="285.822" gradientUnits="userSpaceOnUse">
<stop stop-color="#00B4DB"/>
<stop offset="1"/>
</linearGradient>
<linearGradient id="paint129_linear_97_1464" x1="1348.3" y1="174.485" x2="1188.04" y2="514.219" gradientUnits="userSpaceOnUse">
<stop stop-color="#00B4DB"/>
<stop offset="1"/>
</linearGradient>
<linearGradient id="paint130_linear_97_1464" x1="-125.903" y1="480.734" x2="34.3604" y2="141" gradientUnits="userSpaceOnUse">
<stop stop-color="#00B4DB"/>
<stop offset="1"/>
</linearGradient>
<linearGradient id="paint131_linear_97_1464" x1="688.354" y1="-62.8264" x2="528.091" y2="276.907" gradientUnits="userSpaceOnUse">
<stop stop-color="#00B4DB"/>
<stop offset="1"/>
</linearGradient>
<linearGradient id="paint132_linear_97_1464" x1="694.656" y1="260.645" x2="667.725" y2="317.735" gradientUnits="userSpaceOnUse">
<stop stop-color="#00B4DB"/>
<stop offset="1"/>
</linearGradient>
</defs>
</svg>
