<svg width="106" height="40" viewBox="0 0 106 40" fill="none" xmlns="http://www.w3.org/2000/svg">
<rect width="106" height="40" rx="20" fill="#053E4B"/>
<path d="M28.7614 13.8636H30.5227V21.517C30.5227 22.3314 30.3314 23.053 29.9489 23.6818C29.5663 24.3068 29.0284 24.7992 28.3352 25.1591C27.642 25.5152 26.8295 25.6932 25.8977 25.6932C24.9697 25.6932 24.1591 25.5152 23.4659 25.1591C22.7727 24.7992 22.2348 24.3068 21.8523 23.6818C21.4697 23.053 21.2784 22.3314 21.2784 21.517V13.8636H23.0341V21.375C23.0341 21.9015 23.1496 22.3693 23.3807 22.7784C23.6155 23.1875 23.947 23.5095 24.375 23.7443C24.803 23.9754 25.3106 24.0909 25.8977 24.0909C26.4886 24.0909 26.9981 23.9754 27.4261 23.7443C27.858 23.5095 28.1875 23.1875 28.4148 22.7784C28.6458 22.3693 28.7614 21.9015 28.7614 21.375V13.8636ZM39.4787 18.9034L37.9389 19.1761C37.8745 18.9792 37.7723 18.7917 37.6321 18.6136C37.4957 18.4356 37.3101 18.2898 37.0753 18.1761C36.8404 18.0625 36.5469 18.0057 36.1946 18.0057C35.7135 18.0057 35.312 18.1136 34.9901 18.3295C34.6681 18.5417 34.5071 18.8163 34.5071 19.1534C34.5071 19.4451 34.6151 19.6799 34.831 19.858C35.0469 20.036 35.3954 20.1818 35.8764 20.2955L37.2628 20.6136C38.0658 20.7992 38.6643 21.0852 39.0582 21.4716C39.4522 21.858 39.6491 22.3598 39.6491 22.9773C39.6491 23.5 39.4976 23.9659 39.1946 24.375C38.8954 24.7803 38.4768 25.0985 37.9389 25.3295C37.4048 25.5606 36.7855 25.6761 36.081 25.6761C35.1037 25.6761 34.3063 25.4678 33.6889 25.0511C33.0715 24.6307 32.6927 24.0341 32.5526 23.2614L34.1946 23.0114C34.2969 23.4394 34.5071 23.7633 34.8253 23.983C35.1435 24.1989 35.5582 24.3068 36.0696 24.3068C36.6264 24.3068 37.0715 24.1913 37.4048 23.9602C37.7382 23.7254 37.9048 23.4394 37.9048 23.1023C37.9048 22.8295 37.8026 22.6004 37.598 22.4148C37.3973 22.2292 37.0885 22.089 36.6719 21.9943L35.1946 21.6705C34.3802 21.4848 33.7779 21.1894 33.3878 20.7841C33.0014 20.3788 32.8082 19.8655 32.8082 19.2443C32.8082 18.7292 32.9522 18.2784 33.2401 17.892C33.5279 17.5057 33.9257 17.2045 34.4332 16.9886C34.9408 16.7689 35.5223 16.6591 36.1776 16.6591C37.1207 16.6591 37.8632 16.8636 38.4048 17.2727C38.9465 17.678 39.3045 18.2216 39.4787 18.9034ZM45.2784 25.6761C44.4186 25.6761 43.678 25.4924 43.0568 25.125C42.4394 24.7538 41.9621 24.233 41.625 23.5625C41.2917 22.8883 41.125 22.0985 41.125 21.1932C41.125 20.2992 41.2917 19.5114 41.625 18.8295C41.9621 18.1477 42.4318 17.6155 43.0341 17.233C43.6402 16.8504 44.3485 16.6591 45.1591 16.6591C45.6515 16.6591 46.1288 16.7405 46.5909 16.9034C47.053 17.0663 47.4678 17.322 47.8352 17.6705C48.2027 18.0189 48.4924 18.4716 48.7045 19.0284C48.9167 19.5814 49.0227 20.2538 49.0227 21.0455V21.6477H42.0852V20.375H47.358C47.358 19.928 47.267 19.5322 47.0852 19.1875C46.9034 18.839 46.6477 18.5644 46.3182 18.3636C45.9924 18.1629 45.6098 18.0625 45.1705 18.0625C44.6932 18.0625 44.2765 18.1799 43.9205 18.4148C43.5682 18.6458 43.2955 18.9489 43.1023 19.3239C42.9129 19.6951 42.8182 20.0985 42.8182 20.5341V21.5284C42.8182 22.1117 42.9205 22.608 43.125 23.017C43.3333 23.4261 43.6231 23.7386 43.9943 23.9545C44.3655 24.1667 44.7992 24.2727 45.2955 24.2727C45.6174 24.2727 45.911 24.2273 46.1761 24.1364C46.4413 24.0417 46.6705 23.9015 46.8636 23.7159C47.0568 23.5303 47.2045 23.3011 47.3068 23.0284L48.9148 23.3182C48.786 23.7917 48.5549 24.2064 48.2216 24.5625C47.892 24.9148 47.4773 25.1894 46.9773 25.3864C46.4811 25.5795 45.9148 25.6761 45.2784 25.6761ZM50.9077 25.5V16.7727H52.5497V18.1591H52.6406C52.7997 17.6894 53.08 17.3201 53.4815 17.0511C53.8868 16.7784 54.3452 16.642 54.8565 16.642C54.9626 16.642 55.0876 16.6458 55.2315 16.6534C55.3793 16.661 55.4948 16.6705 55.5781 16.6818V18.3068C55.5099 18.2879 55.3887 18.267 55.2145 18.2443C55.0402 18.2178 54.866 18.2045 54.6918 18.2045C54.2902 18.2045 53.9323 18.2898 53.6179 18.4602C53.3073 18.6269 53.0611 18.8598 52.8793 19.1591C52.6974 19.4545 52.6065 19.7917 52.6065 20.1705V25.5H50.9077Z" fill="white"/>
<path d="M76 13.3335C76.8841 13.3335 77.7319 13.6847 78.357 14.3098C78.9821 14.9349 79.3333 15.7828 79.3333 16.6668C79.3333 17.5509 78.9821 18.3987 78.357 19.0239C77.7319 19.649 76.8841 20.0002 76 20.0002C75.1159 20.0002 74.2681 19.649 73.643 19.0239C73.0179 18.3987 72.6667 17.5509 72.6667 16.6668C72.6667 15.7828 73.0179 14.9349 73.643 14.3098C74.2681 13.6847 75.1159 13.3335 76 13.3335ZM76 21.6668C79.6833 21.6668 82.6667 23.1585 82.6667 25.0002V26.6668H69.3333V25.0002C69.3333 23.1585 72.3167 21.6668 76 21.6668Z" fill="white"/>
</svg>
